<svg width="256" height="256" viewBox="-1.17 -4.575 42 42" fill="none" xmlns="http://www.w3.org/2000/svg">
  <path fill-rule="evenodd" clip-rule="evenodd" d="M0.68396 4.36825C0.68396 2.14953 4.05223 0.966797 8.2072 0.966797C12.3622 0.966797 15.7304 2.14953 15.7304 4.36825V15.8947C15.7304 18.1134 12.3622 19.2961 8.2072 19.2961C4.05223 19.2961 0.68396 18.1134 0.68396 15.8947V4.36825Z" fill="#2399FF"/>
  <path fill-rule="evenodd" clip-rule="evenodd" d="M23.9376 4.36825C23.9376 2.14953 27.3058 0.966797 31.4608 0.966797C35.6158 0.966797 38.984 2.14953 38.984 4.36825V15.8947C38.984 18.1134 35.6158 19.2961 31.4608 19.2961C27.3058 19.2961 23.9376 18.1134 23.9376 15.8947V4.36825Z" fill="#2399FF"/>
  <path d="M24.2112 8.6268H15.4568V11.089H24.2112V8.6268Z" fill="#2399FF"/>
  <path d="M23.664 18.4754H15.7304L11.0797 12.1833H8.07037L14.3625 20.664H25.0319L31.324 12.1833H28.3147L23.664 18.4754Z" fill="white"/>
  <path fill-rule="evenodd" clip-rule="evenodd" d="M12.174 16.9526C12.174 14.7339 15.5422 13.5511 19.6972 13.5511C23.8522 13.5511 27.2204 14.7339 27.2204 16.9526V28.479C27.2204 30.6977 23.8522 31.8805 19.6972 31.8805C15.5422 31.8805 12.174 30.6977 12.174 28.479V16.9526Z" fill="#2399FF"/>
  <path fill-rule="evenodd" clip-rule="evenodd" d="M14.8799 15.7095C13.6937 16.2255 13.5418 16.7296 13.5418 16.9708C13.5418 17.212 13.6937 17.716 14.8799 18.232C16.0144 18.7256 17.7049 19.0226 19.6972 19.0226C21.6894 19.0226 23.38 18.7256 24.5145 18.232C25.7007 17.716 25.8526 17.212 25.8526 16.9708C25.8526 16.7296 25.7007 16.2255 24.5145 15.7095C23.38 15.216 21.6894 14.919 19.6972 14.919C17.7049 14.919 16.0144 15.216 14.8799 15.7095Z" fill="white"/>
  <path fill-rule="evenodd" clip-rule="evenodd" d="M3.38993 3.12517C2.20373 3.64118 2.05182 4.14523 2.05182 4.38645C2.05182 4.62766 2.20373 5.13172 3.38993 5.64773C4.52441 6.14124 6.21496 6.43824 8.2072 6.43824C10.1994 6.43824 11.89 6.14124 13.0245 5.64773C14.2107 5.13172 14.3626 4.62766 14.3626 4.38645C14.3626 4.14523 14.2107 3.64117 13.0245 3.12517C11.89 2.63166 10.1994 2.33466 8.2072 2.33466C6.21496 2.33466 4.52441 2.63166 3.38993 3.12517Z" fill="white"/>
  <path fill-rule="evenodd" clip-rule="evenodd" d="M26.6435 3.12517C25.4573 3.64118 25.3054 4.14523 25.3054 4.38645C25.3054 4.62766 25.4573 5.13172 26.6435 5.64773C27.778 6.14124 29.4686 6.43824 31.4608 6.43824C33.453 6.43824 35.1436 6.14124 36.2781 5.64773C37.4643 5.13172 37.6162 4.62766 37.6162 4.38645C37.6162 4.14523 37.4643 3.64117 36.2781 3.12517C35.1436 2.63166 33.453 2.33466 31.4608 2.33466C29.4686 2.33466 27.778 2.63166 26.6435 3.12517Z" fill="white"/>
</svg>
